# xmcd
#
# Track frame offsets:
#	150
#	11597
#	26215
#	40482
#	56061
#	71182
#	84588
#	102227
#	116642
#	131831
#	144810
#	156198
#	165732
#	179715
#	196617
#	212994
#	229308
#	250751
#	265611
#	282391
#	294344
#
# Disc length: 4115 seconds
#
# Revision: 0
# Processed by: cddbd v1.5.2PL0 Copyright (c) Steve Scherf et al.
# Submitted via: EZCDAudioConverter 7.1.0.1
#
DISCID=3d101115
DTITLE=Hott Urban Volume 53 CAN
DYEAR=2019
DGENRE=blues
TTITLE0=Big Sean ft. A$AP Ferg and Hit Boy - Bezerk
TTITLE1=Missy Elliott - Throw It Back
TTITLE2=Fetty Wap ft. Monty - Birthday
TTITLE3=Fat Joe ft. Cardi B and Anuell AA - Yes
TTITLE4=Doja Cat ft. Tyga - Juicy
TTITLE5=Migos, Karol G, Snoop Dogg and Rock Mafia - My Family
TTITLE6=Snoop Dogg ft. Jermaine Dupri, Ozuna and Slim Jxmmi - Do It When I'm I
TTITLE6=n It
TTITLE7=Arin Ray ft. Kehlani - Change
TTITLE8=Jeezy ft. Meek Mill - MLK Blvd
TTITLE9=K Camp - Lottery
TTITLE10=Stunna 4 Vegas ft. DaBaby - Ashley
TTITLE11=Vince Staples - So What?
TTITLE12=DJ Snake and J. Balvin ft. Tyga - Loco Contigo
TTITLE13=Young Dolph and Key Glock - Water On Water On Water
TTITLE14=Gallant - Sleep On It
TTITLE15=Pop Smoke - Welcome To The Party
TTITLE16=E-40 ft. Quavo, Roddy Ricch, A$AP Ferg and ScHoolboy Q - Chase The Mo
TTITLE16=ney
TTITLE17=Odie - North Face
TTITLE18=Teyana Taylor ft. King Combs - How You Want It
TTITLE19=Blac Youngsta - Cut Up
TTITLE20=DVSN - Miss Me?
EXTD=
EXTT0=
EXTT1=
EXTT2=
EXTT3=
EXTT4=
EXTT5=
EXTT6=
EXTT7=
EXTT8=
EXTT9=
EXTT10=
EXTT11=
EXTT12=
EXTT13=
EXTT14=
EXTT15=
EXTT16=
EXTT17=
EXTT18=
EXTT19=
EXTT20=
PLAYORDER=
